<svg xmlns="http://www.w3.org/2000/svg" xmlns:xlink="http://www.w3.org/1999/xlink" width="2000" zoomAndPan="magnify" viewBox="0 0 1500 1499.999933" height="2000" preserveAspectRatio="xMidYMid meet" version="1.0"><defs><clipPath id="eb1790c442"><path d="M 150 434.25 L 735 434.25 L 735 926 L 150 926 Z M 150 434.25 " clip-rule="nonzero"/></clipPath><clipPath id="4d86df42eb"><path d="M 765 574 L 1350 574 L 1350 1065.75 L 765 1065.75 Z M 765 574 " clip-rule="nonzero"/></clipPath></defs><g clip-path="url(#eb1790c442)"><path fill="#0162b1" d="M 158.503906 606.28125 C 164.574219 629.855469 171.867188 653.304688 179.640625 676.367188 C 187.285156 698.945312 196.179688 721.429688 208.355469 741.984375 C 219.308594 760.550781 232.988281 778.023438 249.628906 791.835938 C 267.484375 806.640625 287.914062 816.535156 310.140625 823.054688 C 332.269531 829.542969 355.109375 833.078125 377.429688 838.792969 C 398.5 844.191406 582 851.097656 602.042969 859.574219 C 642.769531 876.824219 731.066406 932.261719 734.277344 925.226562 C 735.335938 922.882812 725.25 855.914062 720.242188 825.335938 C 720.082031 824.308594 719.726562 823.375 719.246094 822.507812 C 720.335938 814.351562 735.722656 607.535156 680.796875 529.324219 C 655.84375 493.800781 621.667969 468.199219 580.523438 454.292969 C 538.027344 439.871094 329.414062 437.269531 284.957031 434.890625 C 263.308594 433.734375 240.792969 433.445312 219.851562 439.804688 C 198.847656 446.167969 181.46875 459.140625 169.265625 477.289062 C 143.601562 515.511719 147.519531 563.882812 158.503906 606.28125 Z M 158.503906 606.28125 " fill-opacity="1" fill-rule="nonzero"/></g><g clip-path="url(#4d86df42eb)"><path fill="#ff0147" d="M 1330.734375 617.265625 C 1318.53125 599.085938 1301.152344 586.144531 1280.179688 579.78125 C 1259.207031 573.421875 1236.722656 573.710938 1215.074219 574.867188 C 1170.621094 577.246094 962.003906 579.816406 919.511719 594.203125 C 878.367188 608.144531 844.191406 633.710938 819.234375 669.234375 C 764.308594 747.476562 779.726562 954.261719 780.785156 962.421875 C 780.304688 963.289062 779.953125 964.21875 779.789062 965.25 C 774.78125 995.824219 764.695312 1062.792969 765.753906 1065.140625 C 768.964844 1072.171875 857.261719 1016.734375 897.992188 999.488281 C 918.03125 991.007812 1101.53125 984.101562 1122.601562 978.707031 C 1144.925781 972.988281 1167.761719 969.488281 1189.890625 962.96875 C 1212.085938 956.449219 1232.546875 946.554688 1250.40625 931.746094 C 1267.042969 917.9375 1280.691406 900.464844 1291.679688 881.898438 C 1303.851562 861.308594 1312.75 838.859375 1320.394531 816.277344 C 1328.199219 793.214844 1335.457031 769.769531 1341.558594 746.195312 C 1352.449219 703.828125 1356.367188 655.488281 1330.734375 617.265625 Z M 1330.734375 617.265625 " fill-opacity="1" fill-rule="nonzero"/></g><path fill="#ffffff" d="M 402.742188 531.410156 C 374.539062 600.917969 346.339844 670.390625 318.105469 739.898438 C 314.957031 747.640625 307.988281 753.066406 299.1875 750.660156 C 291.832031 748.636719 285.3125 739.449219 288.429688 731.738281 C 301.4375 699.683594 314.445312 667.628906 327.453125 635.574219 C 327.261719 635.414062 327.066406 635.253906 326.90625 635.09375 C 300.023438 609.203125 275.546875 581.164062 253.128906 551.355469 C 248.117188 544.675781 252.132812 534.140625 258.652344 530.320312 C 266.425781 525.789062 274.710938 529.195312 279.691406 535.84375 C 298.0625 560.253906 318.300781 583.21875 339.949219 604.804688 C 350.964844 577.632812 362.011719 550.457031 373.03125 523.253906 C 376.179688 515.511719 383.148438 510.082031 391.949219 512.492188 C 399.335938 514.515625 405.855469 523.703125 402.742188 531.410156 Z M 463.769531 644.4375 C 450.664062 646.398438 437.558594 648.324219 424.453125 650.285156 C 424.933594 641.097656 425.417969 631.914062 425.898438 622.726562 C 434.667969 622.050781 443.4375 621.410156 452.203125 620.734375 C 460.492188 620.09375 467.589844 614.117188 467.589844 605.351562 C 467.589844 597.511719 460.523438 589.324219 452.203125 589.964844 C 438.8125 590.992188 425.417969 591.988281 412.023438 593.015625 C 403.929688 593.625 396.960938 599.375 396.671875 607.855469 C 396.125 609.332031 395.769531 610.972656 395.675781 612.738281 C 393.492188 653.785156 391.304688 694.800781 389.121094 735.851562 C 388.671875 744.042969 396.507812 751.398438 404.507812 751.238281 C 423.328125 750.820312 442.183594 750.433594 461.003906 750.015625 C 480.757812 749.597656 480.855469 718.828125 461.003906 719.246094 C 447.578125 719.535156 434.152344 719.824219 420.726562 720.113281 C 421.402344 707.234375 422.109375 694.320312 422.785156 681.441406 C 439.164062 679 455.546875 676.558594 471.925781 674.117188 C 480.148438 672.898438 484.675781 662.523438 482.6875 655.199219 C 480.246094 646.398438 471.992188 643.21875 463.769531 644.4375 Z M 519.65625 583.089844 C 496.113281 596.195312 487.824219 626.097656 500.640625 649.546875 C 506.9375 661.078125 517.601562 669.074219 529.964844 673.027344 C 537.0625 675.304688 550.234375 674.886719 552.191406 683.914062 C 554.28125 693.582031 546.699219 707.074219 540.179688 713.722656 C 533.980469 720.082031 526.015625 722.457031 518.691406 716.964844 C 512.042969 711.988281 501.507812 715.90625 497.652344 722.488281 C 493.0625 730.359375 496.496094 738.550781 503.179688 743.527344 C 526.113281 760.710938 555.757812 746.386719 569.953125 725.445312 C 584.664062 703.765625 591.152344 667.855469 564.527344 652.050781 C 555.117188 646.464844 543.230469 647.105469 534.140625 641.546875 C 527.523438 637.5 523.992188 629.40625 525.40625 622.308594 C 528.875 604.902344 551.390625 603.519531 559.613281 617.84375 C 569.472656 634.996094 596.066406 619.515625 586.175781 602.332031 C 572.972656 579.398438 543.101562 570.082031 519.65625 583.089844 Z M 602.714844 570.402344 C 602.296875 607.019531 601.882812 643.636719 601.464844 680.285156 C 601.238281 700.101562 632.007812 700.101562 632.234375 680.285156 C 632.652344 643.667969 633.070312 607.050781 633.488281 570.402344 C 633.679688 550.585938 602.941406 550.585938 602.714844 570.402344 Z M 614.695312 719.503906 C 594.910156 719.503906 594.878906 750.273438 614.695312 750.273438 C 634.484375 750.273438 634.515625 719.503906 614.695312 719.503906 Z M 1199.367188 720.59375 C 1198.949219 757.210938 1198.53125 793.828125 1198.113281 830.476562 C 1197.890625 850.292969 1228.660156 850.292969 1228.882812 830.476562 C 1229.300781 793.859375 1229.71875 757.242188 1230.136719 720.59375 C 1230.363281 700.808594 1199.589844 700.777344 1199.367188 720.59375 Z M 1211.347656 869.726562 C 1191.5625 869.726562 1191.53125 900.496094 1211.347656 900.496094 C 1231.132812 900.496094 1231.164062 869.726562 1211.347656 869.726562 Z M 998.75 652.695312 C 989.949219 655.101562 986.800781 663.359375 987.988281 671.613281 C 995.792969 724.511719 1000.417969 777.863281 1002.023438 831.34375 L 917.679688 663.101562 C 910.582031 648.96875 889.253906 656.355469 889.027344 670.875 C 887.839844 743.109375 886.683594 815.347656 885.496094 887.582031 C 885.175781 907.402344 915.945312 907.402344 916.265625 887.582031 C 917.101562 836.289062 917.9375 785.027344 918.769531 733.730469 C 947.390625 790.808594 976.039062 847.914062 1004.660156 904.992188 C 1011.757812 919.125 1033.117188 911.769531 1033.308594 897.21875 C 1034.496094 818.945312 1029.101562 740.828125 1017.667969 663.390625 C 1016.445312 655.199219 1006.070312 650.671875 998.75 652.695312 Z M 1179.261719 789.746094 C 1180.898438 806.03125 1179.035156 822.703125 1177.140625 838.890625 C 1175.117188 855.945312 1171.292969 872.550781 1159.667969 885.785156 C 1136.285156 912.476562 1096.488281 902.039062 1076.636719 877.046875 C 1056.660156 851.929688 1046.253906 815.765625 1051.070312 784 C 1055.441406 755.21875 1076.542969 728.015625 1105.929688 722.007812 C 1107.539062 721.6875 1109.175781 721.589844 1110.75 721.6875 C 1112 721.300781 1113.320312 721.042969 1114.765625 720.980469 C 1131.691406 720.113281 1148.070312 728.144531 1159.28125 740.605469 C 1171.742188 754.511719 1177.398438 771.40625 1179.261719 789.746094 Z M 1147.945312 786.054688 C 1144.925781 769.222656 1133.683594 750.785156 1114.765625 751.78125 C 1114.441406 751.816406 1114.121094 751.78125 1113.800781 751.78125 C 1092.792969 756.246094 1081.101562 776.546875 1080.558594 797.039062 C 1080.011719 817.789062 1087.460938 843.097656 1101.339844 858.933594 C 1107.34375 865.773438 1115.632812 871.492188 1125.171875 870.914062 C 1133.683594 870.398438 1139.269531 863.816406 1142.324219 856.300781 C 1146.53125 845.925781 1146.980469 833.878906 1147.976562 822.832031 C 1149.035156 810.753906 1150.09375 798.097656 1147.945312 786.054688 Z M 1147.945312 786.054688 " fill-opacity="1" fill-rule="nonzero"/></svg>